<?xml version="1.0" standalone="no"?>
<!DOCTYPE svg PUBLIC "-//W3C//DTD SVG 20010904//EN"
 "http://www.w3.org/TR/2001/REC-SVG-20010904/DTD/svg10.dtd">
<svg version="1.0" xmlns="http://www.w3.org/2000/svg"
 width="1024.000000pt" height="1024.000000pt" viewBox="0 0 1024.000000 1024.000000"
 preserveAspectRatio="xMidYMid meet">

<g transform="translate(0.000000,1024.000000) scale(0.100000,-0.100000)"
fill="#000000" stroke="none">
<path d="M4735 10200 c-171 -12 -365 -35 -550 -66 -1161 -193 -2199 -806
-3005 -1774 -804 -967 -1197 -2102 -1166 -3365 19 -773 175 -1441 485 -2072
256 -522 565 -948 1005 -1389 616 -616 1274 -1028 2043 -1278 912 -297 2022
-314 2978 -44 1328 373 2544 1377 3159 2605 329 658 494 1357 513 2173 30
1291 -352 2420 -1135 3358 -241 289 -541 582 -822 803 -760 598 -1607 935
-2600 1034 -185 19 -721 27 -905 15z m855 -934 c952 -108 1709 -466 2408
-1140 669 -647 1069 -1381 1216 -2236 49 -282 60 -423 61 -765 0 -328 -8 -448
-46 -705 -97 -647 -337 -1225 -719 -1735 -283 -378 -679 -755 -1080 -1027
-567 -386 -1141 -600 -1835 -684 -212 -26 -757 -26 -965 -1 -822 102 -1484
383 -2124 903 -151 123 -512 481 -638 634 -506 612 -800 1274 -902 2035 -41
305 -46 751 -11 1045 109 935 503 1736 1204 2454 146 149 315 302 451 408 612
476 1315 753 2080 818 69 5 141 12 160 14 82 9 614 -3 740 -18z"/>
<path d="M2902 7929 c-34 -17 -77 -49 -96 -71 -71 -83 -66 77 -66 -2053 0
-2180 -8 -1978 85 -2072 86 -85 68 -83 732 -83 l573 0 0 -573 c0 -664 -2 -646
84 -732 93 -93 -48 -86 1606 -83 1396 3 1456 4 1490 22 59 31 119 96 140 154
20 52 20 80 20 1976 0 2179 8 1979 -84 2072 -87 87 -64 84 -727 84 l-578 0 -3
593 c-3 659 0 625 -74 707 -21 23 -56 51 -78 63 l-41 22 -1461 3 -1460 2 -62
-31z m2618 -944 l0 -414 -592 -3 c-585 -3 -594 -3 -633 -24 -57 -31 -114 -90
-139 -143 -21 -46 -21 -51 -24 -1118 l-2 -1073 -420 0 -420 0 0 1588 c0 874 3
1592 7 1595 3 4 505 7 1115 7 l1108 0 0 -415z m1395 -2565 l0 -1595 -1112 -3
-1113 -2 0 1600 0 1600 1113 -2 1112 -3 0 -1595z"/>
</g>
</svg>
