<svg xmlns="http://www.w3.org/2000/svg" xmlns:xlink="http://www.w3.org/1999/xlink" version="1.1" width="1000" height="1000" viewBox="0 0 1000 1000" xml:space="preserve">
<desc>Created with Fabric.js 3.5.0</desc>
<defs>
</defs>
<rect x="0" y="0" width="100%" height="100%" fill="#ffffff"/>
<g transform="matrix(0.0938 0 0 0.0938 64.0341 64.0341)" id="643343">
<g style="" vector-effect="non-scaling-stroke">
		<g transform="matrix(0.1333 0 0 -0.1333 -2.1072 0.7348)">
<path style="stroke: none; stroke-width: 1; stroke-dasharray: none; stroke-linecap: butt; stroke-dashoffset: 0; stroke-linejoin: miter; stroke-miterlimit: 4; is-custom-font: none; font-file-url: none; fill: rgb(0,0,0); fill-rule: nonzero; opacity: 1;" transform=" translate(-5105.4692, -5113.2157)" d="M 4735 10200 c -171 -12 -365 -35 -550 -66 c -1161 -193 -2199 -806 -3005 -1774 c -804 -967 -1197 -2102 -1166 -3365 c 19 -773 175 -1441 485 -2072 c 256 -522 565 -948 1005 -1389 c 616 -616 1274 -1028 2043 -1278 c 912 -297 2022 -314 2978 -44 c 1328 373 2544 1377 3159 2605 c 329 658 494 1357 513 2173 c 30 1291 -352 2420 -1135 3358 c -241 289 -541 582 -822 803 c -760 598 -1607 935 -2600 1034 c -185 19 -721 27 -905 15 z m 855 -934 c 952 -108 1709 -466 2408 -1140 c 669 -647 1069 -1381 1216 -2236 c 49 -282 60 -423 61 -765 c 0 -328 -8 -448 -46 -705 c -97 -647 -337 -1225 -719 -1735 c -283 -378 -679 -755 -1080 -1027 c -567 -386 -1141 -600 -1835 -684 c -212 -26 -757 -26 -965 -1 c -822 102 -1484 383 -2124 903 c -151 123 -512 481 -638 634 c -506 612 -800 1274 -902 2035 c -41 305 -46 751 -11 1045 c 109 935 503 1736 1204 2454 c 146 149 315 302 451 408 c 612 476 1315 753 2080 818 c 69 5 141 12 160 14 c 82 9 614 -3 740 -18 z" stroke-linecap="round"/>
</g>
		<g transform="matrix(0.1333 0 0 -0.1333 -2.0787 1.2021)">
<path style="stroke: none; stroke-width: 1; stroke-dasharray: none; stroke-linecap: butt; stroke-dashoffset: 0; stroke-linejoin: miter; stroke-miterlimit: 4; is-custom-font: none; font-file-url: none; fill: rgb(0,0,0); fill-rule: nonzero; opacity: 1;" transform=" translate(-5105.0016, -5110.2718)" d="M 2902 7929 c -34 -17 -77 -49 -96 -71 c -71 -83 -66 77 -66 -2053 c 0 -2180 -8 -1978 85 -2072 c 86 -85 68 -83 732 -83 l 573 0 l 0 -573 c 0 -664 -2 -646 84 -732 c 93 -93 -48 -86 1606 -83 c 1396 3 1456 4 1490 22 c 59 31 119 96 140 154 c 20 52 20 80 20 1976 c 0 2179 8 1979 -84 2072 c -87 87 -64 84 -727 84 l -578 0 l -3 593 c -3 659 0 625 -74 707 c -21 23 -56 51 -78 63 l -41 22 l -1461 3 l -1460 2 l -62 -31 z m 2618 -944 l 0 -414 l -592 -3 c -585 -3 -594 -3 -633 -24 c -57 -31 -114 -90 -139 -143 c -21 -46 -21 -51 -24 -1118 l -2 -1073 l -420 0 l -420 0 l 0 1588 c 0 874 3 1592 7 1595 c 3 4 505 7 1115 7 l 1108 0 l 0 -415 z m 1395 -2565 l 0 -1595 l -1112 -3 l -1113 -2 l 0 1600 l 0 1600 l 1113 -2 l 1112 -3 l 0 -1595 z" stroke-linecap="round"/>
</g>
</g>
</g>
</svg>